<svg xmlns="http://www.w3.org/2000/svg" width="256" height="256" viewBox="0 0 100 100"><rect width="100" height="100" rx="0" fill="#040404"></rect><path fill="#ffffff" d="M38.08 62.60L30.34 62.60L30.27 51.12L24.80 60.33L21.06 60.33L15.58 51.51L15.58 62.60L7.84 62.60L7.84 37.40L14.83 37.40L23.04 50.83L31.03 37.40L38.01 37.40L38.08 62.60ZM61.05 62.60L59.36 58.21L49.78 58.21L48.09 62.60L39.45 62.60L50.47 37.40L58.82 37.40L69.84 62.60L61.05 62.60ZM52.12 52.09L57.02 52.09L54.57 45.75L52.12 52.09ZM79.56 56.19L92.16 56.19L92.16 62.60L71.20 62.60L71.20 37.40L91.69 37.40L91.69 43.81L79.56 43.81L79.56 46.76L90.21 46.76L90.21 52.88L79.56 52.88L79.56 56.19Z"></path></svg>