<svg width="207" height="51" viewBox="0 0 207 51" fill="none" xmlns="http://www.w3.org/2000/svg">
<path d="M17.68 7.4L14.845 13.13H13.45L10.63 7.4V14H8.29V3.515H11.455L14.155 9.275L16.87 3.515H20.02V14H17.68V7.4ZM25.3765 11.3C25.7665 11.78 26.2915 12.02 26.9515 12.02C27.6115 12.02 28.1315 11.78 28.5115 11.3C28.9015 10.81 29.0965 10.145 29.0965 9.305V3.515H31.4365V9.38C31.4365 10.9 31.0165 12.07 30.1765 12.89C29.3365 13.7 28.2615 14.105 26.9515 14.105C25.6415 14.105 24.5615 13.695 23.7115 12.875C22.8715 12.055 22.4515 10.89 22.4515 9.38V3.515H24.7915V9.305C24.7915 10.145 24.9865 10.81 25.3765 11.3ZM37.2412 5.33C36.8512 5.33 36.5412 5.425 36.3112 5.615C36.0912 5.795 35.9812 6.04 35.9812 6.35C35.9812 6.65 36.1162 6.89 36.3862 7.07C36.6662 7.25 37.3012 7.465 38.2912 7.715C39.2912 7.955 40.0662 8.32 40.6162 8.81C41.1662 9.3 41.4412 10.015 41.4412 10.955C41.4412 11.895 41.0862 12.66 40.3762 13.25C39.6762 13.83 38.7512 14.12 37.6012 14.12C35.9412 14.12 34.4462 13.505 33.1162 12.275L34.5112 10.565C35.6412 11.555 36.6862 12.05 37.6462 12.05C38.0762 12.05 38.4112 11.96 38.6512 11.78C38.9012 11.59 39.0262 11.34 39.0262 11.03C39.0262 10.71 38.8962 10.46 38.6362 10.28C38.3762 10.09 37.8612 9.9 37.0912 9.71C35.8712 9.42 34.9762 9.045 34.4062 8.585C33.8462 8.115 33.5662 7.385 33.5662 6.395C33.5662 5.395 33.9212 4.625 34.6312 4.085C35.3512 3.545 36.2462 3.275 37.3162 3.275C38.0162 3.275 38.7162 3.395 39.4162 3.635C40.1162 3.875 40.7262 4.215 41.2462 4.655L40.0612 6.365C39.1512 5.675 38.2112 5.33 37.2412 5.33ZM50.9916 3.515V5.6H45.7716V7.76H50.4666V9.755H45.7716V11.93H51.1566V14H43.4316V3.515H50.9916ZM56.0211 11.3C56.4111 11.78 56.9361 12.02 57.5961 12.02C58.2561 12.02 58.7761 11.78 59.1561 11.3C59.5461 10.81 59.7411 10.145 59.7411 9.305V3.515H62.0811V9.38C62.0811 10.9 61.6611 12.07 60.8211 12.89C59.9811 13.7 58.9061 14.105 57.5961 14.105C56.2861 14.105 55.2061 13.695 54.3561 12.875C53.5161 12.055 53.0961 10.89 53.0961 9.38V3.515H55.4361V9.305C55.4361 10.145 55.6311 10.81 56.0211 11.3ZM73.9007 7.4L71.0657 13.13H69.6707L66.8507 7.4V14H64.5107V3.515H67.6757L70.3757 9.275L73.0907 3.515H76.2407V14H73.9007V7.4ZM90.8023 8.705C90.8023 7.765 90.5023 6.965 89.9023 6.305C89.3023 5.645 88.5623 5.315 87.6823 5.315C86.8123 5.315 86.0773 5.645 85.4773 6.305C84.8773 6.965 84.5773 7.765 84.5773 8.705C84.5773 9.635 84.8773 10.43 85.4773 11.09C86.0773 11.74 86.8123 12.065 87.6823 12.065C88.5623 12.065 89.3023 11.74 89.9023 11.09C90.5023 10.43 90.8023 9.635 90.8023 8.705ZM91.5973 12.56C90.5373 13.59 89.2323 14.105 87.6823 14.105C86.1323 14.105 84.8273 13.59 83.7673 12.56C82.7073 11.52 82.1773 10.23 82.1773 8.69C82.1773 7.15 82.7073 5.865 83.7673 4.835C84.8273 3.795 86.1323 3.275 87.6823 3.275C89.2323 3.275 90.5373 3.795 91.5973 4.835C92.6573 5.865 93.1873 7.15 93.1873 8.69C93.1873 10.23 92.6573 11.52 91.5973 12.56ZM102.37 3.515V5.57H97.5099V7.835H102.13V9.89H97.5099V14H95.1699V3.515H102.37ZM15.76 32L14.785 29.735H10.39L9.415 32H6.925L11.455 21.515H13.72L18.25 32H15.76ZM12.595 24.635L11.275 27.68H13.9L12.595 24.635ZM27.9718 24.995C27.9718 26.675 27.3068 27.76 25.9768 28.25L28.6318 32H25.7518L23.4268 28.655H21.8068V32H19.4668V21.515H23.4418C25.0718 21.515 26.2318 21.79 26.9218 22.34C27.6218 22.89 27.9718 23.775 27.9718 24.995ZM23.5168 26.63C24.3168 26.63 24.8618 26.5 25.1518 26.24C25.4418 25.98 25.5868 25.57 25.5868 25.01C25.5868 24.44 25.4368 24.05 25.1368 23.84C24.8368 23.63 24.3118 23.525 23.5618 23.525H21.8068V26.63H23.5168ZM35.1802 29.93C36.3302 29.93 37.2702 29.475 38.0002 28.565L39.5002 30.11C38.3102 31.45 36.9052 32.12 35.2852 32.12C33.6752 32.12 32.3452 31.61 31.2952 30.59C30.2552 29.57 29.7352 28.285 29.7352 26.735C29.7352 25.175 30.2652 23.875 31.3252 22.835C32.3952 21.795 33.7002 21.275 35.2402 21.275C36.9602 21.275 38.4002 21.93 39.5602 23.24L38.1052 24.89C37.3652 23.97 36.4452 23.51 35.3452 23.51C34.4652 23.51 33.7102 23.8 33.0802 24.38C32.4602 24.95 32.1502 25.725 32.1502 26.705C32.1502 27.675 32.4452 28.455 33.0352 29.045C33.6252 29.635 34.3402 29.93 35.1802 29.93ZM47.8615 21.515H50.2015V32H47.8615V27.875H43.6915V32H41.3515V21.515H43.6915V25.895H47.8615V21.515ZM52.7773 21.515H55.1173V32H52.7773V21.515ZM62.1392 23.54V32H59.7992V23.54H56.8292V21.515H65.1092V23.54H62.1392ZM74.3852 21.515V23.6H69.1652V25.76H73.8602V27.755H69.1652V29.93H74.5502V32H66.8252V21.515H74.3852ZM81.4546 29.93C82.6046 29.93 83.5446 29.475 84.2746 28.565L85.7746 30.11C84.5846 31.45 83.1796 32.12 81.5596 32.12C79.9496 32.12 78.6196 31.61 77.5696 30.59C76.5296 29.57 76.0096 28.285 76.0096 26.735C76.0096 25.175 76.5396 23.875 77.5996 22.835C78.6696 21.795 79.9746 21.275 81.5146 21.275C83.2346 21.275 84.6746 21.93 85.8346 23.24L84.3796 24.89C83.6396 23.97 82.7196 23.51 81.6196 23.51C80.7396 23.51 79.9846 23.8 79.3546 24.38C78.7346 24.95 78.4246 25.725 78.4246 26.705C78.4246 27.675 78.7196 28.455 79.3096 29.045C79.8996 29.635 80.6146 29.93 81.4546 29.93ZM92.0659 23.54V32H89.7259V23.54H86.7559V21.515H95.0359V23.54H92.0659ZM99.5269 29.3C99.9169 29.78 100.442 30.02 101.102 30.02C101.762 30.02 102.282 29.78 102.662 29.3C103.052 28.81 103.247 28.145 103.247 27.305V21.515H105.587V27.38C105.587 28.9 105.167 30.07 104.327 30.89C103.487 31.7 102.412 32.105 101.102 32.105C99.7919 32.105 98.7119 31.695 97.8619 30.875C97.0219 30.055 96.6019 28.89 96.6019 27.38V21.515H98.9419V27.305C98.9419 28.145 99.1369 28.81 99.5269 29.3ZM116.522 24.995C116.522 26.675 115.857 27.76 114.527 28.25L117.182 32H114.302L111.977 28.655H110.357V32H108.017V21.515H111.992C113.622 21.515 114.782 21.79 115.472 22.34C116.172 22.89 116.522 23.775 116.522 24.995ZM112.067 26.63C112.867 26.63 113.412 26.5 113.702 26.24C113.992 25.98 114.137 25.57 114.137 25.01C114.137 24.44 113.987 24.05 113.687 23.84C113.387 23.63 112.862 23.525 112.112 23.525H110.357V26.63H112.067ZM126.475 21.515V23.6H121.255V25.76H125.95V27.755H121.255V29.93H126.64V32H118.915V21.515H126.475ZM138.695 30.365V27.665H136.07V25.82H138.695V23.12H140.765V25.82H143.39V27.665H140.765V30.365H138.695ZM15.85 39.515V41.6H10.63V43.76H15.325V45.755H10.63V47.93H16.015V50H8.29V39.515H15.85ZM25.4395 39.515H27.7795V50H25.4395L20.4445 43.43V50H18.1045V39.515H20.2945L25.4395 46.265V39.515ZM37.1752 44.66H39.5302V48.38C38.4902 49.54 37.0502 50.12 35.2102 50.12C33.6702 50.12 32.3752 49.61 31.3252 48.59C30.2852 47.57 29.7652 46.285 29.7652 44.735C29.7652 43.175 30.2952 41.875 31.3552 40.835C32.4252 39.795 33.7102 39.275 35.2102 39.275C36.7202 39.275 38.0302 39.77 39.1402 40.76L37.9252 42.515C37.4552 42.105 37.0202 41.825 36.6202 41.675C36.2302 41.515 35.8052 41.435 35.3452 41.435C34.4552 41.435 33.7052 41.74 33.0952 42.35C32.4852 42.95 32.1802 43.745 32.1802 44.735C32.1802 45.725 32.4702 46.52 33.0502 47.12C33.6402 47.71 34.3402 48.005 35.1502 48.005C35.9602 48.005 36.6352 47.85 37.1752 47.54V44.66ZM41.6152 39.515H43.9552V50H41.6152V39.515ZM53.8721 39.515H56.2121V50H53.8721L48.8771 43.43V50H46.5371V39.515H48.7271L53.8721 46.265V39.515ZM66.3578 39.515V41.6H61.1378V43.76H65.8328V45.755H61.1378V47.93H66.5228V50H58.7978V39.515H66.3578ZM76.1723 39.515V41.6H70.9523V43.76H75.6473V45.755H70.9523V47.93H76.3373V50H68.6123V39.515H76.1723ZM86.9317 42.995C86.9317 44.675 86.2667 45.76 84.9367 46.25L87.5917 50H84.7117L82.3867 46.655H80.7667V50H78.4267V39.515H82.4017C84.0317 39.515 85.1917 39.79 85.8817 40.34C86.5817 40.89 86.9317 41.775 86.9317 42.995ZM82.4767 44.63C83.2767 44.63 83.8217 44.5 84.1117 44.24C84.4017 43.98 84.5467 43.57 84.5467 43.01C84.5467 42.44 84.3967 42.05 84.0967 41.84C83.7967 41.63 83.2717 41.525 82.5217 41.525H80.7667V44.63H82.4767ZM89.3252 39.515H91.6652V50H89.3252V39.515ZM101.582 39.515H103.922V50H101.582L96.587 43.43V50H94.247V39.515H96.437L101.582 46.265V39.515ZM113.318 44.66H115.673V48.38C114.633 49.54 113.193 50.12 111.353 50.12C109.813 50.12 108.518 49.61 107.468 48.59C106.428 47.57 105.908 46.285 105.908 44.735C105.908 43.175 106.438 41.875 107.498 40.835C108.568 39.795 109.853 39.275 111.353 39.275C112.863 39.275 114.173 39.77 115.283 40.76L114.068 42.515C113.598 42.105 113.163 41.825 112.763 41.675C112.373 41.515 111.948 41.435 111.488 41.435C110.598 41.435 109.848 41.74 109.238 42.35C108.628 42.95 108.323 43.745 108.323 44.735C108.323 45.725 108.613 46.52 109.193 47.12C109.783 47.71 110.483 48.005 111.293 48.005C112.103 48.005 112.778 47.85 113.318 47.54V44.66Z" fill="white"/>
<rect y="3" width="3" height="48" fill="white"/>
</svg>
